<svg viewBox="0,0,85.38711,23.37646" height="23.37646" width="85.38711" xmlns:xlink="http://www.w3.org/1999/xlink" xmlns="http://www.w3.org/2000/svg" version="1.1"><g transform="translate(-196.97539,-177.37004)"><g style="mix-blend-mode: normal" stroke-dashoffset="0" stroke-dasharray="" stroke-miterlimit="10" stroke-linejoin="miter" stroke-linecap="butt" stroke-width="2" stroke="#000000" fill-rule="nonzero" fill="#ffffff" data-paper-data="{&quot;isPaintingLayer&quot;:true}"><path data-paper-data="{&quot;index&quot;:null}" d="M217.14807,199.7451c-2.14308,0.02669 -8.3289,-0.3109 -11.88334,-2.55245c-3.94004,-2.48472 -5.17923,-6.95395 -5.62329,-8.17412c-1.0233,-2.81184 -1.58416,-9.84484 -1.58416,-9.84484l36.80551,-0.44537c0,0 -1.1752,10.55289 -3.06439,13.92328c-3.07717,5.48979 -8.68071,7.01917 -14.65032,7.0935z"></path><path data-paper-data="{&quot;index&quot;:null}" d="M251.6454,196.84797c-3.94004,-2.48471 -5.17925,-6.95394 -5.6233,-8.17412c-1.0233,-2.81182 -1.58416,-9.84483 -1.58416,-9.84483l36.80551,-0.44537c0,0 -1.1752,10.55289 -3.06439,13.92328c-3.07717,5.48979 -8.68071,7.01917 -14.65032,7.0935c-2.14308,0.02668 -8.3289,-0.31091 -11.88334,-2.55246z"></path></g></g></svg>