<svg version="1.1" xmlns="http://www.w3.org/2000/svg" xmlns:xlink="http://www.w3.org/1999/xlink" width="87.76189" height="16.01141" viewBox="0,0,87.76189,16.01141"><g transform="translate(-196.15393,-171.72362)"><g data-paper-data="{&quot;isPaintingLayer&quot;:true}" fill="#ffffff" fill-rule="nonzero" stroke="#000000" stroke-width="2" stroke-linecap="butt" stroke-linejoin="miter" stroke-miterlimit="10" stroke-dasharray="" stroke-dashoffset="0" style="mix-blend-mode: normal"><path d="M197.75278,173.44672c0.51343,-0.28732 1.15504,-0.20043 1.57356,0.21314c0.04736,0.04736 5.1417,4.8812 17.49337,4.8812c12.35167,0 17.44338,-4.83384 17.49337,-4.88383c0.42315,-0.41015 1.06584,-0.49262 1.57882,-0.20262c0.51091,0.2914 0.76573,0.88703 0.62364,1.45778c-0.11841,0.47102 -3.07081,11.52279 -19.69584,11.52279c-16.62239,0 -19.57742,-11.05177 -19.69584,-11.52279c-0.14415,-0.57443 0.11331,-1.17436 0.6289,-1.46568z"/><path d="M243.18994,173.43723c0.52566,-0.29416 1.18255,-0.2052 1.61104,0.21822c0.04849,0.04849 5.26415,4.99745 17.91,4.99745c12.64584,0 17.85882,-4.94896 17.91,-5.00014c0.43323,-0.41992 1.09122,-0.50436 1.61642,-0.20745c0.52307,0.29834 0.78397,0.90816 0.63849,1.4925c-0.12123,0.48224 -3.14395,11.79722 -20.16492,11.79722c-17.01827,0 -20.04368,-11.31498 -20.16492,-11.79722c-0.14758,-0.58811 0.11601,-1.20233 0.64389,-1.50059z"/></g></g></svg>