<svg viewBox="0,0,86.18597,44.23137" height="44.23137" width="86.18597" xmlns:xlink="http://www.w3.org/1999/xlink" xmlns="http://www.w3.org/2000/svg" version="1.1"><g transform="translate(-198.35043,-158.24506)"><g style="mix-blend-mode: normal" stroke-dashoffset="0" stroke-dasharray="" stroke-miterlimit="10" stroke-linejoin="miter" stroke-linecap="butt" stroke-width="2" stroke="#000000" fill-rule="nonzero" fill="#ffffff" data-paper-data="{&quot;isPaintingLayer&quot;:true}"><path d="M199.35043,179.81788c0.07592,-6.09778 1.11731,-11.92286 4.67282,-15.68259c3.1404,-3.32079 8.86481,-4.94507 13.38346,-4.88881c5.96961,0.07433 11.57315,1.60371 14.65032,7.0935c1.88919,3.37039 3.11878,9.55493 3.06439,13.92328c-0.07154,5.74626 -0.51698,11.82456 -3.72506,15.54868c-3.20312,3.71837 -9.69385,5.08046 -14.50743,5.02053c-4.54085,-0.05653 -9.71241,-1.83666 -12.77394,-5.26411c-3.43429,-3.84476 -4.84015,-9.67915 -4.76456,-15.75047z"></path><path data-paper-data="{&quot;index&quot;:null}" d="M265.36171,201.47644c-2.14324,-0.0067 -8.32305,-0.44061 -11.84213,-2.73726c-3.90086,-2.54581 -5.07027,-7.03379 -5.49527,-8.26073c-0.97937,-2.82745 -1.4306,-9.86833 -1.4306,-9.86833l36.80798,0.12807c0,0 -1.33946,10.5333 -3.28092,13.87385c-3.16232,5.44119 -8.78901,6.88308 -14.75905,6.86441z"></path></g></g></svg>