<svg version="1.1" xmlns="http://www.w3.org/2000/svg" xmlns:xlink="http://www.w3.org/1999/xlink" width="85.61429" height="32.0249" viewBox="0,0,85.61429,32.0249"><g transform="translate(-197.12133,-158.29751)"><g data-paper-data="{&quot;isPaintingLayer&quot;:true}" fill="#ffffff" fill-rule="nonzero" stroke="#000000" stroke-width="2" stroke-linecap="butt" stroke-linejoin="miter" stroke-miterlimit="10" stroke-dasharray="" stroke-dashoffset="0" style="mix-blend-mode: normal"><path d="M217.1842,159.2987c5.96986,0.07076 11.57949,2.18683 14.67865,9.87857c1.90269,4.72225 3.1202,19.53456 3.1202,19.53456l-36.807,-0.41813c0,0 0.53265,-9.87927 1.54466,-13.83358c0.43916,-1.71593 1.66042,-7.99884 5.59046,-11.51021c3.54542,-3.16773 9.72983,-3.67662 11.87301,-3.65121z"/><path d="M263.95313,159.77106c5.96955,0.11061 11.57195,2.26413 14.64504,9.97645c1.88668,4.73489 3.05403,19.55518 3.05403,19.55518l-36.80517,-0.66387c0,0 0.5661,-9.87562 1.59148,-13.8231c0.44496,-1.71299 1.68749,-7.98769 5.62938,-11.47275c3.5561,-3.14402 9.74218,-3.61161 11.88524,-3.57191z"/></g></g></svg>