<svg viewBox="0,0,85.38711,23.37507" height="23.37507" width="85.38711" xmlns:xlink="http://www.w3.org/1999/xlink" xmlns="http://www.w3.org/2000/svg" version="1.1"><g transform="translate(-196.9754,-177.38504)"><g style="mix-blend-mode: normal" stroke-dashoffset="0" stroke-dasharray="" stroke-miterlimit="10" stroke-linejoin="miter" stroke-linecap="butt" stroke-width="2" stroke="#000000" fill-rule="nonzero" fill="#ffffff" data-paper-data="{&quot;isPaintingLayer&quot;:true}"><path d="M217.14808,178.38504c5.96961,0.07433 11.57315,1.60371 14.65032,7.0935c1.88919,3.37039 3.06439,13.92328 3.06439,13.92328l-36.80551,-0.44537c0,0 0.56086,-7.033 1.58416,-9.84484c0.44406,-1.22017 1.68325,-5.6894 5.62329,-8.17412c3.55444,-2.24155 9.74026,-2.57914 11.88334,-2.55245z"></path><path d="M263.52874,178.72971c5.96961,0.07433 11.57315,1.60371 14.65032,7.0935c1.88919,3.37039 3.06439,13.92328 3.06439,13.92328l-36.80551,-0.44537c0,0 0.56086,-7.03301 1.58416,-9.84483c0.44405,-1.22018 1.68326,-5.68941 5.6233,-8.17412c3.55444,-2.24155 9.74026,-2.57914 11.88334,-2.55246z"></path></g></g></svg>