<svg viewBox="0,0,83.0773,26.67996" height="26.67996" width="83.0773" xmlns:xlink="http://www.w3.org/1999/xlink" xmlns="http://www.w3.org/2000/svg" version="1.1"><g transform="translate(-198.72136,-172.00838)"><g style="mix-blend-mode: normal" stroke-dashoffset="0" stroke-dasharray="" stroke-miterlimit="10" stroke-linejoin="miter" stroke-linecap="round" stroke-width="2" stroke="#000000" fill-rule="nonzero" fill="#ffffff" data-paper-data="{&quot;isPaintingLayer&quot;:true}"><path d="M203.34035,197.67479c0,0 27.46665,0.4014 29.64094,-3.16537c1.41743,-2.32519 1.60317,-6.4985 1.7668,-7.96012c0.95094,-8.49413 -0.37225,-13.18565 -0.37225,-13.18565l-34.6563,7.75887c0,0 -0.43377,7.17993 0.15065,9.85153c0.62037,2.836 3.47016,6.70074 3.47016,6.70074z"></path><path data-paper-data="{&quot;index&quot;:null}" d="M277.17968,197.50221c0,0 -27.46664,0.4014 -29.64093,-3.16537c-1.41743,-2.3252 -1.60317,-6.4985 -1.7668,-7.96013c-0.95094,-8.49413 0.37224,-13.18564 0.37224,-13.18564l34.6563,7.75888c0,0 0.43376,7.17993 -0.15065,9.85153c-0.62037,2.836 -3.47016,6.70073 -3.47016,6.70073z"></path></g></g></svg>