<svg viewBox="0,0,96.73058,32.99546" height="32.99546" width="96.73058" xmlns:xlink="http://www.w3.org/1999/xlink" xmlns="http://www.w3.org/2000/svg" version="1.1"><g transform="translate(-190.71494,-162.85037)"><g style="mix-blend-mode: normal" stroke-dashoffset="0" stroke-dasharray="" stroke-miterlimit="10" stroke-linejoin="miter" stroke-linecap="butt" fill-rule="nonzero" data-paper-data="{&quot;isPaintingLayer&quot;:true}"><path stroke-width="2" stroke="#000000" fill="#ffffff" data-paper-data="{&quot;index&quot;:null}" d="M208.60036,190.76403c-1.96741,-0.85018 -7.47699,-3.68265 -9.80729,-7.17955c-2.58311,-3.87624 -1.89066,-8.46211 -1.79813,-9.75728c0.21322,-2.98463 2.57117,-9.63428 2.57117,-9.63428l33.78328,14.61279c0,0 -5.37927,9.15468 -8.47937,11.46074c-5.04954,3.75617 -10.78939,2.86576 -16.26967,0.49757z"></path><path stroke-width="2" stroke="#000000" fill="#ffffff" data-paper-data="{&quot;index&quot;:null}" d="M269.52359,191.36733c-5.48027,2.36819 -11.22012,3.25861 -16.26966,-0.49757c-3.1001,-2.30606 -8.47937,-11.46074 -8.47937,-11.46074l33.78328,-14.6128c0,0 2.35795,6.64965 2.57117,9.63428c0.09253,1.29516 0.78498,5.88104 -1.79814,9.75728c-2.3303,3.49689 -7.83988,6.32937 -9.80729,7.17955z"></path><path stroke-width="0.5" stroke="none" fill="#000000" d="M198.20954,195.6893c-1.11803,0.55902 -1.67705,-0.55902 -1.67705,-0.55902l0.1094,-0.07628c-2.9481,-2.2507 -5.1998,-6.52982 -5.90694,-10.0655c0,0 -0.24515,-1.22573 0.98058,-1.47087c1.22573,-0.24515 1.47087,0.98058 1.47087,0.98058c0.58483,2.92417 2.45174,6.72164 4.95549,8.55579l0.62666,0.95824c0,0 0.55902,1.11803 -0.55902,1.67705z"></path><path stroke-width="0.5" stroke="none" fill="#000000" data-paper-data="{&quot;index&quot;:null}" d="M279.95092,192.41316c-1.11804,-0.55902 -0.55902,-1.67705 -0.55902,-1.67705l0.62666,-0.95824c2.50375,-1.83415 4.37066,-5.63162 4.95549,-8.55579c0,0 0.24514,-1.22573 1.47087,-0.98058c1.22573,0.24514 0.98058,1.47087 0.98058,1.47087c-0.70714,3.53568 -2.95884,7.8148 -5.90694,10.0655l0.1094,0.07628c0,0 -0.55902,1.11804 -1.67705,0.55902z"></path></g></g></svg>