<svg viewBox="0,0,83.3032,43.66543" height="43.66543" width="83.3032" xmlns:xlink="http://www.w3.org/1999/xlink" xmlns="http://www.w3.org/2000/svg" version="1.1"><g transform="translate(-198.34753,-158.16705)"><g style="mix-blend-mode: normal" stroke-dashoffset="0" stroke-dasharray="" stroke-miterlimit="10" stroke-linejoin="miter" stroke-linecap="butt" stroke-width="2" stroke="#000000" fill-rule="nonzero" fill="#ffffff" data-paper-data="{&quot;isPaintingLayer&quot;:true}"><path d="M199.35042,179.81789c-0.07559,6.07132 1.33027,11.90571 4.76456,15.75047c3.06153,3.42745 8.23309,5.20758 12.77394,5.26411c4.81358,0.05993 11.30431,-1.30216 14.50743,-5.02053c3.20808,-3.72412 3.65352,-9.80242 3.72506,-15.54868c0.05439,-4.36835 -1.1752,-10.55289 -3.06439,-13.92328c-3.07717,-5.48979 -8.68071,-7.01917 -14.65032,-7.0935c-4.51865,-0.05626 -10.24306,1.56802 -13.38346,4.88881c-3.55551,3.75973 -4.5969,9.58481 -4.67282,15.68259z"></path><path d="M244.87974,179.73845c-0.07559,6.07132 1.33027,11.90571 4.76456,15.75047c3.06153,3.42745 8.23309,5.20758 12.77394,5.26411c4.81358,0.05993 11.3043,-1.30216 14.50743,-5.02053c3.20808,-3.72412 3.65352,-9.80242 3.72506,-15.54868c0.05439,-4.36835 -1.1752,-10.55289 -3.06439,-13.92328c-3.07716,-5.4898 -8.68071,-7.01917 -14.65032,-7.0935c-4.51865,-0.05626 -10.24306,1.56802 -13.38347,4.88881c-3.55551,3.75973 -4.59689,9.58481 -4.67282,15.68259z"></path></g></g></svg>