<svg version="1.1" xmlns="http://www.w3.org/2000/svg" xmlns:xlink="http://www.w3.org/1999/xlink" width="99.15112" height="89.68514" viewBox="0,0,99.15112,89.68514"><g transform="translate(-190.4272,-135.13777)"><g data-paper-data="{&quot;isPaintingLayer&quot;:true}" fill="none" fill-rule="nonzero" stroke="#000000" stroke-width="2" stroke-linecap="round" stroke-linejoin="miter" stroke-miterlimit="10" stroke-dasharray="" stroke-dashoffset="0" style="mix-blend-mode: normal"><path d="M272.84159,215.96108c-7.64324,4.78372 -17.94863,7.77972 -31.97867,7.86183c-14.03004,0.08211 -19.30094,0.86459 -35.03387,-7.46961c-7.69717,-4.0774 -11.12492,-8.9074 -13.45613,-22.86852c-1.14184,-6.83825 -0.77507,-6.26964 -0.94583,-17.7077c-0.06619,-4.434 0.4668,-11.72961 2.07351,-16.42269c5.89319,-17.2136 14.97002,-22.72641 43.97521,-23.21663c25.49817,-0.43094 37.59323,7.97275 37.59323,7.97275c0,0 9.48094,7.47977 12.05083,18.21879c2.36443,9.88045 1.67264,20.78046 -0.77408,31.15547c-2.44673,10.37501 -6.12077,17.8552 -13.50419,22.4763z"/></g></g></svg>