<svg viewBox="0,0,95.58388,51.83075" height="51.83075" width="95.58388" xmlns:xlink="http://www.w3.org/1999/xlink" xmlns="http://www.w3.org/2000/svg" version="1.1"><g transform="translate(-193.00724,-149.18167)"><g style="mix-blend-mode: normal" stroke-dashoffset="0" stroke-dasharray="" stroke-miterlimit="10" stroke-linejoin="miter" stroke-width="2" stroke="#000000" fill-rule="nonzero" data-paper-data="{&quot;isPaintingLayer&quot;:true}"><path stroke-linecap="butt" fill="#ffffff" d="M194.00724,183.24519c0.06057,-4.86489 0.8914,-9.51222 3.72804,-12.51178c2.50545,-2.64937 7.07246,-3.94524 10.6775,-3.90036c4.76263,0.0593 9.23321,1.27946 11.68822,5.65929c1.50722,2.68894 2.4882,7.62305 2.44481,11.10818c-0.05708,4.58444 -0.41245,9.43379 -2.9719,12.40494c-2.55549,2.96656 -7.73388,4.05326 -11.57422,4.00545c-3.62275,-0.0451 -7.74869,-1.46531 -10.19122,-4.19978c-2.73992,-3.0674 -3.86154,-7.72215 -3.80123,-12.56593z"></path><path stroke-linecap="round" fill="none" d="M262.97023,151.54395c0,0 6.48564,-2.73369 13.71835,-0.45609c7.98373,2.51409 10.51684,4.28296 10.90254,8.94277c0.4571,5.52236 -19.54699,7.68171 -19.54699,7.68171"></path><path stroke-linecap="butt" fill="#000000" d="M264.95049,173.31766c0.44219,0.28363 0.18752,1.46947 -0.56883,2.64865c-0.75635,1.17917 -1.72796,1.90516 -2.17015,1.62153c-0.44219,-0.28363 -0.18752,-1.46947 0.56883,-2.64865c0.75635,-1.17917 1.72796,-1.90516 2.17015,-1.62153z"></path><path stroke-linecap="butt" fill="#ffffff" data-paper-data="{&quot;index&quot;:null}" d="M233.17804,192.07209c-3.28042,-2.06873 -4.31217,-5.78975 -4.68188,-6.80566c-0.85199,-2.34108 -1.31895,-8.19667 -1.31895,-8.19667l30.64375,-0.37081c0,0 -0.97845,8.78619 -2.55137,11.59233c-2.56201,4.57072 -7.22744,5.84406 -12.19765,5.90595c-1.7843,0.02221 -6.93452,-0.25886 -9.8939,-2.12514z"></path></g></g></svg>