<svg viewBox="0,0,93.868,25.6004" height="25.6004" width="93.868" xmlns:xlink="http://www.w3.org/1999/xlink" xmlns="http://www.w3.org/2000/svg" version="1.1"><g transform="translate(-189.93904,-177.10887)"><g style="mix-blend-mode: normal" stroke-dashoffset="0" stroke-dasharray="" stroke-miterlimit="10" stroke-linejoin="miter" stroke-linecap="butt" fill-rule="nonzero" data-paper-data="{&quot;isPaintingLayer&quot;:true}"><path stroke-width="2" stroke="#000000" fill="#ffffff" data-paper-data="{&quot;index&quot;:null}" d="M260.82895,201.5807c-5.9011,-0.90486 -11.23709,-3.19961 -13.51984,-9.06441c-1.40147,-3.60062 -1.09576,-14.21434 -1.09576,-14.21434l36.38492,5.56609c0,0 -1.53472,6.88638 -2.93959,9.52834c-0.60964,1.14645 -2.45908,5.39958 -6.70673,7.31146c-3.83194,1.72477 -10.0045,1.19771 -12.12299,0.87286z"></path><path stroke-width="2" stroke="#000000" fill="#ffffff" data-paper-data="{&quot;index&quot;:null}" d="M217.47039,201.42007c-5.91464,0.81164 -11.68301,0.13003 -15.54017,-4.8428c-2.36805,-3.05301 -5.095,-13.315 -5.095,-13.315l36.4647,-5.01691c0,0 0.48816,7.03843 -0.1069,9.9709c-0.25822,1.27253 -0.82105,5.87611 -4.34912,8.91756c-3.18278,2.74381 -9.25017,3.99487 -11.37352,4.28625z"></path><path stroke-width="0.5" stroke="none" fill="#000000" d="M197.43364,199.56872c-1.11803,0.55902 -1.67705,-0.55902 -1.67705,-0.55902l0.1094,-0.07628c-2.9481,-2.2507 -5.1998,-6.52982 -5.90694,-10.0655c0,0 -0.24515,-1.22573 0.98058,-1.47087c1.22573,-0.24515 1.47087,0.98058 1.47087,0.98058c0.58483,2.92417 2.45174,6.72164 4.95549,8.55579l0.62666,0.95824c0,0 0.55902,1.11803 -0.55902,1.67705z"></path></g></g></svg>