<svg viewBox="0,0,99.83413,23.37646" height="23.37646" width="99.83413" xmlns:xlink="http://www.w3.org/1999/xlink" xmlns="http://www.w3.org/2000/svg" version="1.1"><g transform="translate(-189.93905,-177.37003)"><g style="mix-blend-mode: normal" stroke-dashoffset="0" stroke-dasharray="" stroke-miterlimit="10" stroke-linejoin="miter" stroke-linecap="butt" fill-rule="nonzero" data-paper-data="{&quot;isPaintingLayer&quot;:true}"><path stroke-width="2" stroke="#000000" fill="#ffffff" data-paper-data="{&quot;index&quot;:null}" d="M217.14807,199.7451c-2.14308,0.02669 -8.3289,-0.3109 -11.88334,-2.55245c-3.94004,-2.48472 -5.17923,-6.95395 -5.62329,-8.17412c-1.0233,-2.81184 -1.58416,-9.84484 -1.58416,-9.84484l36.80551,-0.44537c0,0 -1.1752,10.55289 -3.06439,13.92328c-3.07717,5.48979 -8.68071,7.01917 -14.65032,7.0935z"></path><path stroke-width="2" stroke="#000000" fill="#ffffff" data-paper-data="{&quot;index&quot;:null}" d="M251.6454,196.84797c-3.94004,-2.48471 -5.17925,-6.95394 -5.6233,-8.17412c-1.0233,-2.81182 -1.58416,-9.84483 -1.58416,-9.84483l36.80551,-0.44537c0,0 -1.1752,10.55289 -3.06439,13.92328c-3.07717,5.48979 -8.68071,7.01917 -14.65032,7.0935c-2.14308,0.02668 -8.3289,-0.31091 -11.88334,-2.55246z"></path><path stroke-width="0.5" stroke="none" fill="#000000" d="M197.43365,199.56874c-1.11803,0.55902 -1.67705,-0.55902 -1.67705,-0.55902l0.1094,-0.07628c-2.9481,-2.2507 -5.1998,-6.52982 -5.90694,-10.0655c0,0 -0.24515,-1.22573 0.98058,-1.47087c1.22573,-0.24515 1.47087,0.98058 1.47087,0.98058c0.58483,2.92417 2.45174,6.72164 4.95549,8.55579l0.62666,0.95824c0,0 0.55902,1.11803 -0.55902,1.67705z"></path><path stroke-width="0.5" stroke="none" fill="#000000" data-paper-data="{&quot;index&quot;:null}" d="M282.27858,199.65477c-1.11804,-0.55902 -0.55902,-1.67705 -0.55902,-1.67705l0.62666,-0.95824c2.50375,-1.83415 4.37066,-5.63162 4.95549,-8.55579c0,0 0.24514,-1.22573 1.47087,-0.98058c1.22573,0.24514 0.98058,1.47087 0.98058,1.47087c-0.70714,3.53568 -2.95884,7.8148 -5.90694,10.0655l0.1094,0.07628c0,0 -0.55902,1.11804 -1.67705,0.55902z"></path></g></g></svg>