<svg viewBox="0,0,99.83413,43.66873" height="43.66873" width="99.83413" xmlns:xlink="http://www.w3.org/1999/xlink" xmlns="http://www.w3.org/2000/svg" version="1.1"><g transform="translate(-189.93904,-158.16563)"><g style="mix-blend-mode: normal" stroke-dashoffset="0" stroke-dasharray="" stroke-miterlimit="10" stroke-linejoin="miter" stroke-linecap="butt" fill-rule="nonzero" data-paper-data="{&quot;isPaintingLayer&quot;:true}"><path stroke-width="0.5" stroke="none" fill="#000000" d="M197.43365,199.56874c-1.11803,0.55902 -1.67705,-0.55902 -1.67705,-0.55902l0.1094,-0.07628c-2.9481,-2.2507 -5.1998,-6.52982 -5.90694,-10.0655c0,0 -0.24515,-1.22573 0.98058,-1.47087c1.22573,-0.24515 1.47087,0.98058 1.47087,0.98058c0.58483,2.92417 2.45174,6.72164 4.95549,8.55579l0.62666,0.95824c0,0 0.55902,1.11803 -0.55902,1.67705z"></path><path stroke-width="0.5" stroke="none" fill="#000000" data-paper-data="{&quot;index&quot;:null}" d="M282.27858,199.65477c-1.11804,-0.55902 -0.55902,-1.67705 -0.55902,-1.67705l0.62666,-0.95824c2.50375,-1.83415 4.37066,-5.63162 4.95549,-8.55579c0,0 0.24514,-1.22573 1.47087,-0.98058c1.22573,0.24514 0.98058,1.47087 0.98058,1.47087c-0.70714,3.53568 -2.95884,7.8148 -5.90694,10.0655l0.1094,0.07628c0,0 -0.55902,1.11804 -1.67705,0.55902z"></path><path stroke-width="2" stroke="#000000" fill="#ffffff" d="M199.35043,179.81788c0.07592,-6.09778 1.11731,-11.92286 4.67282,-15.68259c3.1404,-3.32079 8.86481,-4.94507 13.38346,-4.88881c5.96961,0.07433 11.57315,1.60371 14.65032,7.0935c1.88919,3.37039 3.11878,9.55493 3.06439,13.92328c-0.07154,5.74626 -0.51698,11.82456 -3.72506,15.54868c-3.20312,3.71837 -9.69385,5.08046 -14.50743,5.02053c-4.54085,-0.05653 -9.71241,-1.83666 -12.77394,-5.26411c-3.43429,-3.84476 -4.84015,-9.67915 -4.76456,-15.75047z"></path><path stroke-width="2" stroke="#000000" fill="#ffffff" d="M244.87974,179.73844c0.07593,-6.09778 1.11731,-11.92286 4.67282,-15.68259c3.14041,-3.32079 8.86482,-4.94507 13.38347,-4.88881c5.96961,0.07433 11.57316,1.6037 14.65032,7.0935c1.88919,3.37039 3.11878,9.55493 3.06439,13.92328c-0.07154,5.74626 -0.51698,11.82456 -3.72506,15.54868c-3.20313,3.71837 -9.69385,5.08046 -14.50743,5.02053c-4.54085,-0.05653 -9.71241,-1.83666 -12.77394,-5.26411c-3.43429,-3.84476 -4.84015,-9.67915 -4.76456,-15.75047z"></path></g></g></svg>