<svg version="1.1" xmlns="http://www.w3.org/2000/svg" xmlns:xlink="http://www.w3.org/1999/xlink" width="80.64862" height="15.35214" viewBox="0,0,80.64862,15.35214"><g transform="translate(-199.60745,-177.5087)"><g data-paper-data="{&quot;isPaintingLayer&quot;:true}" fill="none" fill-rule="nonzero" stroke="#000000" stroke-width="2" stroke-linecap="butt" stroke-linejoin="miter" stroke-miterlimit="10" stroke-dasharray="" stroke-dashoffset="0" style="mix-blend-mode: normal"><path d="M235.94179,179.98382c-3.23895,8.41736 -6.73214,9.73477 -11.43035,11.17965c-4.69095,1.44265 -10.91069,-0.85945 -14.95368,-3.47257c-3.81392,-2.46506 -3.61023,-2.30122 -8.95031,-8.79141c-0.48763,-2.88 7.72499,11.05281 17.67284,12.56033c3.12133,0.47301 8.82003,-1.16436 12.60044,-4.42429c5.43535,-4.68703 8.24698,-11.23244 5.06107,-7.05172z"/><path d="M248.8002,187.12487c3.71401,3.3354 9.37857,5.08719 12.50879,4.67713c9.97619,-1.3069 18.46769,-15.07151 17.92216,-12.20191c-5.46968,6.38135 -5.26274,6.22164 -9.12553,8.60939c-4.09479,2.53117 -10.35963,4.70757 -15.02057,3.17074c-4.66816,-1.5392 -8.13412,-2.92668 -11.20291,-11.40756c-3.10108,-4.24402 -0.42183,2.35668 4.91804,7.15221z" data-paper-data="{&quot;index&quot;:null}"/></g></g></svg>