<svg viewBox="0,0,65.85937,17.20783" height="17.20783" width="65.85937" xmlns:xlink="http://www.w3.org/1999/xlink" xmlns="http://www.w3.org/2000/svg" version="1.1"><g transform="translate(-204.29709,-167.12501)"><g style="mix-blend-mode: normal" stroke-dashoffset="0" stroke-dasharray="" stroke-miterlimit="10" stroke-linejoin="miter" stroke-linecap="butt" stroke-width="2" stroke="#000000" fill-rule="nonzero" fill="#ffffff" data-paper-data="{&quot;isPaintingLayer&quot;:true}"><path d="M205.29709,176.5964c0.02776,-2.22995 0.4086,-4.36017 1.70884,-5.73509c1.14844,-1.21441 3.24184,-1.8084 4.8943,-1.78783c2.18307,0.02718 4.23228,0.58647 5.35759,2.59408c0.69087,1.23254 1.14053,3.49422 1.12064,5.09171c-0.02616,2.1014 -0.18906,4.32422 -1.36225,5.68612c-1.17137,1.3598 -3.54502,1.85791 -5.30534,1.836c-1.66058,-0.02067 -3.55181,-0.67166 -4.6714,-1.92507c-1.25591,-1.40602 -1.77003,-3.53965 -1.74239,-5.75991z"></path><path data-paper-data="{&quot;index&quot;:null}" d="M269.1554,175.64793c0.02765,2.22027 -0.48648,4.35389 -1.74239,5.75992c-1.1196,1.25341 -3.01082,1.9044 -4.6714,1.92507c-1.76031,0.02192 -4.13396,-0.4762 -5.30534,-1.836c-1.17319,-1.36191 -1.33609,-3.58472 -1.36225,-5.68612c-0.01989,-1.5975 0.42977,-3.85917 1.12065,-5.09171c1.12532,-2.00761 3.17451,-2.5669 5.35759,-2.59408c1.65246,-0.02058 3.74586,0.57342 4.8943,1.78782c1.30025,1.37492 1.68107,3.50514 1.70884,5.73509z"></path></g></g></svg>